<?xml version="1.0" standalone="no"?>
<!DOCTYPE svg PUBLIC "-//W3C//DTD SVG 20010904//EN"
 "http://www.w3.org/TR/2001/REC-SVG-20010904/DTD/svg10.dtd">
<svg version="1.0" xmlns="http://www.w3.org/2000/svg"
 width="300.000000pt" height="313.000000pt" viewBox="0 0 300.000000 313.000000"
 preserveAspectRatio="xMidYMid meet" id="nose">
<metadata>
Created by potrace 1.10, written by Peter Selinger 2001-2011
</metadata>
<g transform="translate(0.000000,313.000000) scale(0.100000,-0.100000)"
fill="#000000" stroke="none">
<path d="M1230 2953 c-6 -15 -15 -41 -21 -58 -21 -57 -61 -148 -68 -155 -4 -3
-21 -26 -38 -52 -34 -48 -41 -85 -22 -120 10 -19 16 -338 7 -378 -2 -8 2 -16
7 -17 6 -2 10 7 10 20 0 19 6 22 45 24 197 9 567 65 654 99 28 11 34 -10 29
-94 -3 -43 -6 -78 -7 -79 -1 -1 -37 -4 -81 -8 -44 -3 -87 -8 -95 -10 -16 -5
-28 -7 -195 -29 -176 -24 -206 -27 -287 -31 l-78 -4 0 29 c0 32 14 39 75 38
22 -1 41 3 42 8 2 5 -26 9 -62 10 l-65 0 -6 -35 c-24 -138 -90 -270 -155 -308
-54 -32 -99 -151 -99 -264 0 -57 24 -141 52 -181 10 -14 18 -31 18 -36 0 -6
11 -24 25 -41 36 -42 109 -56 240 -46 125 9 180 8 203 -4 29 -15 234 -11 253
5 27 24 127 35 252 28 l117 -6 36 38 c53 55 79 102 108 188 60 177 11 354
-112 411 -48 22 -80 52 -97 90 -31 66 -66 189 -65 224 5 105 -1 261 -10 261
-5 0 -10 -7 -10 -15 0 -8 -7 -15 -15 -15 -8 0 -15 -5 -15 -11 0 -6 -7 -9 -15
-6 -8 4 -17 2 -21 -4 -3 -5 -14 -7 -25 -4 -13 4 -19 2 -19 -8 0 -13 17 -16 40
-7 3 1 9 2 14 1 4 -1 13 3 20 8 20 17 38 -4 34 -40 -2 -25 -8 -35 -23 -36 -11
-1 -38 -7 -60 -13 -61 -16 -243 -48 -310 -55 -33 -3 -67 -8 -75 -10 -8 -2 -60
-7 -115 -10 -54 -4 -102 -8 -106 -11 -13 -7 -25 21 -24 56 l1 35 57 5 c79 7
77 24 -3 25 -60 0 -65 2 -66 23 -1 12 4 26 10 30 6 4 65 7 131 8 66 1 134 4
150 8 17 3 73 13 125 22 52 8 109 20 126 25 17 5 40 9 52 9 11 0 24 5 27 10 3
6 16 10 28 10 12 0 29 5 37 10 11 7 4 9 -25 8 -22 0 -44 -4 -50 -8 -10 -7 -44
-14 -220 -46 -44 -8 -102 -19 -130 -24 -72 -14 -231 -11 -244 4 -12 14 -17 97
-8 113 4 7 1 15 -6 20 -21 13 -27 40 -11 53 8 7 14 18 14 25 0 7 10 25 23 41
27 35 67 112 67 131 0 7 4 13 8 13 4 0 14 21 21 48 15 52 29 74 41 67 5 -3 30
-9 57 -14 76 -15 190 -71 144 -71 -20 0 -106 -66 -173 -131 -46 -46 -74 -66
-84 -62 -12 4 -15 1 -12 -13 3 -16 14 -19 77 -22 40 -2 78 1 84 6 7 5 30 13
52 17 22 5 42 9 45 10 43 10 87 18 97 16 6 -1 14 3 18 9 3 5 21 10 40 10 19 0
36 4 40 9 3 5 18 10 33 11 15 1 45 2 66 3 39 2 39 2 41 -38 1 -22 5 -47 8 -55
4 -8 8 -38 10 -65 4 -51 26 -111 27 -72 1 71 -31 267 -44 267 0 0 -35 -7 -76
-16 -41 -8 -88 -18 -105 -20 -16 -3 -39 -9 -50 -14 -11 -5 -45 -13 -75 -19
-30 -5 -73 -14 -95 -21 -69 -19 -135 -27 -141 -18 -11 17 215 208 246 208 18
0 10 18 -16 35 -38 24 -142 61 -197 69 -45 7 -47 6 -57 -21z m605 -831 c11 -8
35 -66 39 -97 4 -21 22 -57 46 -91 8 -11 38 -33 65 -48 75 -42 100 -70 124
-144 41 -122 10 -281 -78 -400 -38 -52 -54 -57 -206 -57 -139 -1 -180 -6 -218
-26 -26 -14 -226 -20 -250 -7 -23 12 -87 13 -203 4 -100 -9 -186 3 -216 31
-36 32 -90 163 -96 229 -7 98 29 221 77 259 43 34 92 89 107 120 l14 30 107 2
c60 1 128 6 153 12 25 6 61 11 80 11 19 0 41 4 48 9 19 11 -69 13 -120 2 -24
-5 -74 -11 -113 -12 -38 -2 -75 -7 -81 -11 -16 -12 -64 8 -64 26 0 8 5 18 10
21 6 3 10 17 10 31 0 13 3 24 8 25 4 0 30 2 57 4 28 2 95 6 150 10 55 5 112 8
128 8 15 0 27 4 27 8 0 5 14 9 32 9 35 0 240 27 303 40 22 4 42 8 45 9 3 0 10
-3 15 -7z"/>
<path d="M1480 2020 c0 -5 7 -10 15 -10 8 0 15 5 15 10 0 6 -7 10 -15 10 -8 0
-15 -4 -15 -10z"/>
<path d="M1415 2010 c-4 -6 6 -10 22 -10 22 0 25 2 13 10 -19 12 -27 12 -35 0z"/>
<path d="M1744 2008 c-22 -3 -76 -8 -121 -11 -44 -2 -86 -8 -92 -11 -6 -4 -26
-6 -43 -4 -20 2 -33 -2 -36 -11 -4 -11 5 -13 44 -7 27 3 103 11 169 16 66 6
129 12 140 14 11 2 28 4 38 5 10 0 15 5 12 11 -6 10 -44 10 -111 -2z"/>
<path d="M1687 1760 c-89 -16 -157 -100 -157 -194 1 -66 24 -112 79 -153 38
-30 48 -33 90 -28 145 16 241 69 271 150 31 81 -28 192 -112 213 -59 15 -126
19 -171 12z m181 -43 c42 -18 69 -55 76 -104 14 -106 -61 -172 -230 -199 -53
-8 -106 16 -133 61 -58 99 5 240 115 258 42 7 141 -2 172 -16z"/>
<path d="M1610 1611 c0 -5 18 -9 40 -9 22 0 44 -3 49 -7 5 -3 12 -2 15 3 3 5
0 9 -7 9 -7 0 -31 3 -54 6 -24 4 -43 3 -43 -2z"/>
<path d="M1575 1600 c-3 -5 -1 -10 4 -10 6 0 11 5 11 10 0 6 -2 10 -4 10 -3 0
-8 -4 -11 -10z"/>
<path d="M1758 1593 c6 -2 18 -2 25 0 6 3 1 5 -13 5 -14 0 -19 -2 -12 -5z"/>
<path d="M1804 1592 c5 -8 76 -4 76 4 0 2 -18 4 -41 4 -22 0 -38 -4 -35 -8z"/>
<path d="M1815 1541 c-3 -5 -1 -12 4 -15 5 -3 11 1 15 9 6 16 -9 21 -19 6z"/>
<path d="M1684 1509 c-3 -5 6 -9 20 -9 31 0 34 6 6 13 -11 3 -23 1 -26 -4z"/>
<path d="M1124 1718 c-50 -11 -118 -66 -145 -120 -48 -94 -27 -208 45 -242 67
-32 207 -21 296 22 44 22 59 36 77 72 40 80 22 166 -46 223 -52 43 -147 62
-227 45z m176 -44 c59 -32 90 -83 89 -143 0 -35 -16 -87 -19 -66 -1 6 -5 -1
-9 -15 -7 -24 -55 -55 -105 -67 -88 -21 -110 -23 -118 -11 -5 8 -8 9 -8 2 0
-11 -67 -4 -101 10 -38 16 -57 115 -36 186 8 31 53 82 87 100 56 30 167 32
220 4z"/>
<path d="M1283 1600 c-30 -12 -29 -18 2 -12 14 2 25 8 25 13 0 5 -1 9 -2 8 -2
0 -13 -4 -25 -9z"/>
<path d="M1338 1593 c7 -3 16 -2 19 1 4 3 -2 6 -13 5 -11 0 -14 -3 -6 -6z"/>
<path d="M1212 1565 c-17 -19 -1 -19 24 0 14 11 15 14 4 14 -8 0 -21 -6 -28
-14z"/>
<path d="M1140 1560 l-35 -7 38 -2 c20 0 37 4 37 9 0 6 -1 9 -2 9 -2 -1 -19
-5 -38 -9z"/>
<path d="M1040 1552 c-5 -2 -10 -8 -10 -12 0 -10 32 -5 57 8 14 8 13 10 -10 9
-15 -1 -31 -3 -37 -5z"/>
<path d="M1100 1500 c-11 -7 -12 -12 -4 -20 8 -8 14 -7 23 4 14 17 1 28 -19
16z"/>
<path d="M1260 1490 c-13 -8 -12 -10 3 -10 9 0 17 5 17 10 0 12 -1 12 -20 0z"/>
<path d="M1030 1480 c0 -13 11 -13 30 0 12 8 11 10 -7 10 -13 0 -23 -4 -23
-10z"/>
<path d="M1145 1460 c-17 -8 -16 -9 7 -7 15 2 30 6 34 10 10 10 -17 8 -41 -3z"/>
<path d="M1310 2895 c7 -8 20 -15 29 -15 13 1 13 3 -3 15 -26 19 -42 19 -26 0z"/>
<path d="M1250 2882 c0 -10 38 -42 50 -42 6 0 10 5 10 10 0 6 -7 10 -15 10 -9
0 -18 7 -21 15 -6 16 -24 21 -24 7z"/>
<path d="M1375 2869 c-10 -15 3 -25 16 -12 7 7 7 13 1 17 -6 3 -14 1 -17 -5z"/>
<path d="M1250 2817 c0 -19 16 -31 24 -18 3 5 -1 14 -9 21 -12 10 -15 10 -15
-3z"/>
<path d="M1216 2776 c3 -9 11 -16 16 -16 13 0 5 23 -10 28 -7 2 -10 -2 -6 -12z"/>
<path d="M1290 2780 c0 -5 5 -10 10 -10 6 0 10 5 10 10 0 6 -4 10 -10 10 -5 0
-10 -4 -10 -10z"/>
<path d="M1190 2745 c0 -8 5 -15 10 -15 6 0 10 7 10 15 0 8 -4 15 -10 15 -5 0
-10 -7 -10 -15z"/>
<path d="M1250 2745 c0 -8 5 -15 10 -15 6 0 10 7 10 15 0 8 -4 15 -10 15 -5 0
-10 -7 -10 -15z"/>
<path d="M1166 2711 c-4 -7 -5 -15 -2 -18 9 -9 19 4 14 18 -4 11 -6 11 -12 0z"/>
<path d="M1220 2704 c0 -8 5 -12 10 -9 6 4 8 11 5 16 -9 14 -15 11 -15 -7z"/>
<path d="M1745 2700 c3 -5 8 -10 11 -10 2 0 4 5 4 10 0 6 -5 10 -11 10 -5 0
-7 -4 -4 -10z"/>
<path d="M1695 2690 c3 -5 8 -10 11 -10 2 0 4 5 4 10 0 6 -5 10 -11 10 -5 0
-7 -4 -4 -10z"/>
<path d="M1145 2670 c3 -5 8 -10 11 -10 2 0 4 5 4 10 0 6 -5 10 -11 10 -5 0
-7 -4 -4 -10z"/>
<path d="M1652 2663 c2 -13 -3 -17 -17 -16 -11 1 -23 -4 -27 -10 -5 -8 -14 -5
-30 8 -13 11 -20 16 -16 11 8 -10 -9 -36 -23 -36 -5 0 -9 10 -9 22 0 12 -3 18
-7 14 -4 -4 -8 -15 -8 -24 0 -11 -8 -17 -22 -17 -11 0 -25 -3 -29 -7 -13 -14
-24 -8 -24 12 0 11 -5 20 -11 20 -6 0 -8 -9 -4 -20 5 -16 2 -20 -17 -20 -13 0
-29 -5 -36 -12 -8 -8 -15 -8 -27 2 -8 7 -15 8 -15 3 0 -10 -55 -15 -132 -14
-21 0 -38 -4 -38 -10 0 -6 9 -9 20 -6 10 3 25 -1 31 -9 8 -10 15 -11 25 -4 7
6 36 13 66 15 29 2 100 14 158 26 171 35 304 57 314 51 5 -3 6 1 4 9 -5 15
-56 19 -75 5 -16 -10 -46 0 -38 14 3 5 1 10 -5 10 -6 0 -10 -8 -8 -17z"/>
<path d="M1150 2635 c-13 -14 -19 -25 -14 -25 11 0 47 40 41 46 -2 2 -14 -7
-27 -21z"/>
<path d="M1180 2620 c0 -5 7 -10 15 -10 8 0 15 5 15 10 0 6 -7 10 -15 10 -8 0
-15 -4 -15 -10z"/>
<path d="M1704 2580 c0 -11 4 -20 8 -20 4 0 8 9 8 20 0 11 -4 20 -8 20 -4 0
-8 -9 -8 -20z"/>
<path d="M1126 2577 c3 -10 9 -15 12 -12 3 3 0 11 -7 18 -10 9 -11 8 -5 -6z"/>
<path d="M1480 2552 c0 -10 -6 -24 -12 -32 -10 -11 -9 -11 7 0 26 19 35 32 29
42 -9 15 -24 8 -24 -10z"/>
<path d="M1800 2481 c0 -6 5 -13 10 -16 6 -3 10 1 10 9 0 9 -4 16 -10 16 -5 0
-10 -4 -10 -9z"/>
<path d="M1755 2460 c-3 -5 -1 -10 4 -10 6 0 11 5 11 10 0 6 -2 10 -4 10 -3 0
-8 -4 -11 -10z"/>
<path d="M1556 2431 c-4 -7 -5 -15 -2 -18 9 -9 19 4 14 18 -4 11 -6 11 -12 0z"/>
<path d="M1490 2412 c0 -14 11 -21 26 -15 8 3 11 9 8 14 -7 11 -34 12 -34 1z"/>
<path d="M1420 2400 c0 -5 7 -10 16 -10 8 0 12 5 9 10 -3 6 -10 10 -16 10 -5
0 -9 -4 -9 -10z"/>
<path d="M1615 2398 c-22 -5 -67 -11 -100 -14 -32 -3 -66 -9 -75 -13 -8 -5
-46 -7 -83 -6 -37 1 -70 -2 -73 -6 -2 -5 -11 -6 -19 -2 -8 3 -15 0 -15 -6 0
-16 37 -14 270 14 83 10 161 25 177 34 15 8 13 10 -12 8 -16 0 -48 -5 -70 -9z"/>
<path d="M1405 2320 c-3 -5 -1 -10 4 -10 6 0 11 5 11 10 0 6 -2 10 -4 10 -3 0
-8 -4 -11 -10z"/>
<path d="M1497 2324 c-8 -8 1 -24 14 -24 5 0 9 7 9 15 0 15 -12 20 -23 9z"/>
<path d="M1450 2306 c0 -8 5 -18 10 -21 6 -3 10 1 10 9 0 8 -4 18 -10 21 -5 3
-10 -1 -10 -9z"/>
<path d="M1201 2294 c0 -11 3 -14 6 -6 3 7 2 16 -1 19 -3 4 -6 -2 -5 -13z"/>
<path d="M1733 2263 c13 -47 13 -48 -15 -45 -16 2 -28 -2 -28 -9 0 -8 15 -10
52 -5 61 8 68 12 68 34 0 13 -2 14 -9 4 -13 -21 -46 -10 -49 16 -2 12 -8 22
-14 22 -6 0 -8 -8 -5 -17z"/>
<path d="M1645 2240 c3 -5 8 -10 11 -10 2 0 4 5 4 10 0 6 -5 10 -11 10 -5 0
-7 -4 -4 -10z"/>
<path d="M1561 2224 c0 -11 3 -14 6 -6 3 7 2 16 -1 19 -3 4 -6 -2 -5 -13z"/>
<path d="M1476 2221 c-4 -5 -2 -12 3 -15 5 -4 12 -2 15 3 4 5 2 12 -3 15 -5 4
-12 2 -15 -3z"/>
<path d="M1390 2206 c0 -9 40 -13 46 -5 3 5 -6 9 -20 9 -14 0 -26 -2 -26 -4z"/>
<path d="M1608 2203 c-27 -2 -48 -9 -48 -15 0 -6 -9 -8 -21 -5 -11 3 -44 0
-72 -7 -29 -7 -61 -13 -72 -14 -11 0 -45 -3 -75 -6 -30 -3 -58 -5 -62 -6 -5 0
-8 -4 -8 -10 0 -11 36 -8 200 15 105 15 217 38 225 46 5 6 4 8 -5 7 -8 -1 -36
-3 -62 -5z"/>
<path d="M1271 2184 c0 -11 3 -14 6 -6 3 7 2 16 -1 19 -3 4 -6 -2 -5 -13z"/>
<path d="M1278 2103 c7 -3 16 -2 19 1 4 3 -2 6 -13 5 -11 0 -14 -3 -6 -6z"/>
<path d="M2657 1234 c-2 -3 -94 -14 -237 -30 -25 -2 -72 -9 -105 -14 -33 -6
-105 -15 -160 -20 -55 -6 -150 -15 -211 -22 -108 -11 -111 -11 -141 12 -35 25
-104 34 -141 17 -13 -6 -30 -23 -38 -38 -13 -25 -19 -28 -101 -34 -49 -4 -107
-10 -129 -15 -36 -6 -46 -3 -79 22 -56 41 -112 39 -162 -6 -37 -32 -41 -34
-168 -45 -142 -12 -372 -27 -588 -37 -179 -8 -182 -10 -182 -127 0 -71 3 -89
20 -107 15 -16 27 -20 49 -16 45 9 456 53 669 72 68 6 80 9 87 28 4 11 20 53
35 93 21 57 35 79 71 108 57 47 118 57 155 25 24 -21 24 -21 2 -15 -20 5 -26
-1 -47 -47 -13 -29 -26 -62 -29 -73 -14 -48 -54 -154 -64 -166 -6 -8 -16 -39
-23 -69 -51 -216 -135 -386 -248 -499 -59 -59 -128 -102 -170 -107 -33 -3
-162 80 -162 104 0 6 -5 12 -12 14 -7 3 15 19 49 37 34 18 69 40 80 49 31 29
98 72 111 72 7 0 12 6 12 14 0 8 11 23 25 34 14 11 25 25 25 31 0 22 76 15
103 -10 23 -21 37 -24 37 -9 0 17 -64 51 -87 47 -13 -2 -23 0 -23 5 0 8 38 67
51 78 3 3 20 31 38 63 35 62 30 60 99 41 13 -4 22 -2 22 5 0 6 -18 14 -40 17
-36 6 -67 24 -41 24 6 0 11 7 11 16 0 13 8 15 35 12 24 -3 35 0 35 9 0 7 -11
13 -25 13 -14 0 -25 5 -25 10 0 18 32 24 63 12 32 -12 48 -8 31 7 -5 5 -29 11
-53 13 -41 3 -45 1 -63 -31 -11 -19 -27 -53 -36 -75 -9 -23 -20 -45 -25 -51
-4 -5 -25 -38 -46 -72 -55 -91 -141 -183 -222 -239 -91 -63 -110 -74 -131 -74
-10 0 -18 -4 -18 -10 0 -5 -6 -7 -14 -4 -27 10 -26 -16 1 -47 52 -59 88 -89
139 -115 l51 -26 62 32 c66 33 172 131 214 197 85 135 116 207 157 363 22 84
31 106 47 110 26 6 73 42 73 55 0 5 4 15 8 22 8 12 324 48 347 39 7 -2 16 -20
20 -38 10 -44 22 -58 53 -58 l25 0 -9 -192 c-9 -214 -9 -215 2 -416 6 -128 9
-141 23 -129 9 7 41 21 71 31 30 11 72 27 93 37 37 17 67 16 67 -2 0 -5 4 -9
9 -9 5 0 -2 21 -16 46 -41 72 -55 188 -60 464 -3 234 -10 290 -35 290 -5 0 -6
-5 -3 -11 4 -5 9 -118 11 -251 2 -132 6 -243 8 -247 3 -4 1 -13 -4 -21 -5 -8
-3 -19 6 -27 17 -18 18 -33 2 -34 -84 -3 -110 -7 -120 -17 -18 -18 -1 -27 25
-14 12 7 39 13 60 16 33 3 40 0 48 -21 5 -13 9 -37 9 -53 0 -16 5 -32 10 -35
6 -3 10 -17 10 -31 0 -14 -4 -22 -10 -19 -5 3 -20 0 -32 -7 -13 -7 -26 -12
-30 -13 -3 0 -10 -3 -14 -7 -4 -5 -18 -8 -30 -8 -13 0 -26 -4 -29 -10 -3 -5
-14 -10 -25 -10 -16 0 -18 15 -25 173 -4 96 -5 209 -2 253 4 43 6 96 7 118 0
28 4 37 14 33 7 -3 34 -9 60 -12 40 -6 46 -5 46 10 0 14 -3 15 -14 6 -10 -9
-25 -9 -60 1 -46 12 -46 12 -47 58 -1 62 -11 85 -40 85 -18 0 -29 10 -43 39
-14 28 -16 41 -8 44 7 2 12 8 12 14 0 9 -39 8 -235 -7 -27 -2 -77 -9 -110 -14
-73 -13 -74 -13 -55 -1 13 9 13 10 0 11 -10 0 -8 3 5 9 19 8 19 9 -2 9 -22 1
-35 31 -14 31 5 0 12 14 16 30 4 17 11 30 16 30 5 0 9 7 9 15 0 8 6 15 13 15
6 1 39 2 72 5 175 11 230 17 240 24 5 4 21 5 35 2 21 -5 25 -12 25 -41 0 -26
5 -36 18 -38 15 -3 18 0 12 17 -4 12 -8 35 -10 52 -6 43 -13 51 -35 39 -30
-16 -34 7 -5 26 49 32 151 9 179 -41 6 -11 14 -22 17 -25 3 -3 11 -34 18 -70
7 -36 15 -68 17 -71 2 -4 25 -3 51 2 27 5 165 20 308 34 143 14 298 30 345 35
47 5 106 10 131 10 62 0 84 30 84 113 0 52 -3 61 -29 83 -22 19 -38 24 -72 23
-25 -2 -46 -4 -47 -5z m105 -41 c9 -10 18 -34 21 -53 5 -28 1 -41 -17 -64 -20
-24 -32 -29 -67 -29 -24 0 -45 5 -47 12 -5 16 -22 14 -22 -3 0 -9 -10 -13 -25
-12 -14 0 -25 4 -25 7 0 3 -11 4 -25 1 -14 -2 -22 -9 -18 -15 3 -6 1 -7 -6 -3
-11 7 -226 -8 -282 -20 -40 -8 -190 -25 -267 -31 -63 -4 -75 -3 -86 13 -7 9
-11 25 -9 33 2 9 -3 30 -11 46 -8 16 -14 30 -13 32 2 1 23 4 47 7 25 2 77 9
115 14 39 6 97 13 130 16 33 3 71 8 85 10 21 4 128 16 180 21 8 1 40 5 70 9
30 4 72 9 93 10 21 2 40 6 44 10 3 3 32 6 63 6 42 0 61 -5 72 -17z m-1694
-180 c-7 -16 -16 -33 -21 -40 -5 -7 -6 -17 -3 -22 4 -5 1 -13 -4 -16 -6 -4
-15 -17 -20 -29 -7 -19 -19 -24 -72 -31 -107 -13 -178 -14 -178 -4 0 6 -28 9
-70 7 -38 -1 -70 -6 -70 -11 0 -5 10 -7 23 -4 12 2 33 1 47 -3 17 -6 3 -8 -47
-9 -52 -1 -73 3 -73 11 0 7 -7 2 -16 -10 -8 -12 -21 -22 -27 -22 -7 0 -3 7 7
15 19 14 18 15 -13 15 -29 0 -32 -2 -21 -15 11 -13 7 -15 -28 -15 -22 0 -47
-3 -56 -6 -9 -3 -16 -1 -16 5 0 6 10 12 23 12 22 2 22 2 -1 6 -14 3 -29 -2
-35 -11 -15 -19 -51 -25 -52 -8 0 20 -15 15 -36 -12 -25 -32 -42 -34 -34 -3 4
15 4 18 -3 8 -13 -19 -35 -4 -23 16 5 9 4 28 -3 46 -9 24 -8 31 2 35 10 3 10
7 1 18 -15 19 3 64 26 64 16 0 41 -48 55 -105 8 -29 8 -28 9 10 1 23 -4 46
-10 52 -25 25 -2 42 58 42 31 0 94 2 138 5 44 3 132 9 195 12 63 3 158 9 210
13 164 14 151 15 138 -16z m186 -131 c15 -18 15 -20 -3 -36 -18 -16 -19 -16
-23 18 -5 40 1 44 26 18z m-494 -16 c0 -2 -7 -7 -16 -10 -8 -3 -12 -2 -9 4 6
10 25 14 25 6z m460 -46 c0 -5 -7 -10 -16 -10 -8 0 -12 5 -9 10 3 6 10 10 16
10 5 0 9 -4 9 -10z"/>
<path d="M2650 1160 c-9 -6 -10 -10 -3 -10 6 0 15 5 18 10 8 12 4 12 -15 0z"/>
<path d="M2718 1163 c7 -3 16 -2 19 1 4 3 -2 6 -13 5 -11 0 -14 -3 -6 -6z"/>
<path d="M2410 1130 c0 -5 7 -7 15 -4 8 4 15 8 15 10 0 2 -7 4 -15 4 -8 0 -15
-4 -15 -10z"/>
<path d="M2343 1123 c9 -2 25 -2 35 0 9 3 1 5 -18 5 -19 0 -27 -2 -17 -5z"/>
<path d="M2218 1113 c7 -3 16 -2 19 1 4 3 -2 6 -13 5 -11 0 -14 -3 -6 -6z"/>
<path d="M2068 1103 c7 -3 16 -2 19 1 4 3 -2 6 -13 5 -11 0 -14 -3 -6 -6z"/>
<path d="M2138 1103 c6 -2 18 -2 25 0 6 3 1 5 -13 5 -14 0 -19 -2 -12 -5z"/>
<path d="M2540 1100 c0 -5 4 -10 9 -10 6 0 13 5 16 10 3 6 -1 10 -9 10 -9 0
-16 -4 -16 -10z"/>
<path d="M2370 1079 c-34 -6 -33 -6 13 -8 46 -1 59 3 35 11 -7 2 -29 1 -48 -3z"/>
<path d="M2478 1083 c7 -3 16 -2 19 1 4 3 -2 6 -13 5 -11 0 -14 -3 -6 -6z"/>
<path d="M2680 1070 c-19 -6 -16 -8 18 -5 23 1 45 5 49 9 9 8 -36 6 -67 -4z"/>
<path d="M2150 1060 c0 -5 9 -10 21 -10 11 0 17 5 14 10 -3 6 -13 10 -21 10
-8 0 -14 -4 -14 -10z"/>
<path d="M2230 1059 c0 -5 14 -7 30 -5 44 5 48 14 6 14 -20 0 -36 -4 -36 -9z"/>
<path d="M1915 1050 c3 -5 8 -10 11 -10 2 0 4 5 4 10 0 6 -5 10 -11 10 -5 0
-7 -4 -4 -10z"/>
<path d="M261 954 c0 -11 3 -14 6 -6 3 7 2 16 -1 19 -3 4 -6 -2 -5 -13z"/>
<path d="M735 960 c3 -5 8 -10 11 -10 2 0 4 5 4 10 0 6 -5 10 -11 10 -5 0 -7
-4 -4 -10z"/>
<path d="M498 943 c7 -3 16 -2 19 1 4 3 -2 6 -13 5 -11 0 -14 -3 -6 -6z"/>
<path d="M578 943 c6 -2 18 -2 25 0 6 3 1 5 -13 5 -14 0 -19 -2 -12 -5z"/>
<path d="M810 940 c-11 -7 -5 -8 20 -4 43 8 51 14 19 14 -13 0 -31 -5 -39 -10z"/>
<path d="M395 930 c-3 -5 -2 -10 4 -10 5 0 13 5 16 10 3 6 2 10 -4 10 -5 0
-13 -4 -16 -10z"/>
<path d="M250 895 c0 -9 5 -15 11 -13 6 2 11 8 11 13 0 5 -5 11 -11 13 -6 2
-11 -4 -11 -13z"/>
<path d="M963 903 c9 -2 23 -2 30 0 6 3 -1 5 -18 5 -16 0 -22 -2 -12 -5z"/>
<path d="M860 890 c0 -6 -6 -8 -12 -4 -10 6 -10 4 0 -7 9 -9 15 -10 23 -2 8 8
8 13 0 17 -6 4 -11 2 -11 -4z"/>
<path d="M1748 1083 c-10 -2 -18 -9 -18 -14 0 -11 -4 -12 50 5 39 13 41 15 15
14 -16 0 -38 -2 -47 -5z"/>
<path d="M1750 1030 c-25 -15 -7 -17 40 -4 l45 12 -35 1 c-19 0 -42 -3 -50 -9z"/>
<path d="M1523 1013 c9 -2 25 -2 35 0 9 3 1 5 -18 5 -19 0 -27 -2 -17 -5z"/>
<path d="M1694 991 c-5 -5 -45 -12 -89 -14 -123 -8 -195 -19 -202 -30 -3 -5 9
-7 33 -3 22 3 66 9 99 12 33 3 76 7 95 9 19 2 40 -1 47 -7 15 -12 18 -42 3
-33 -13 8 -13 -4 1 -44 6 -17 18 -31 26 -31 13 0 15 11 10 71 -6 76 -8 83 -23
70z"/>
<path d="M1773 990 c-13 -5 -23 -14 -23 -20 0 -7 6 -8 19 0 11 5 31 10 45 10
14 0 26 5 26 10 0 12 -37 12 -67 0z"/>
<path d="M1305 941 c-3 -5 -1 -12 5 -16 5 -3 10 -2 10 3 0 6 10 8 23 5 18 -4
19 -3 7 6 -19 13 -37 14 -45 2z"/>
<path d="M1790 630 c0 -5 13 -10 29 -10 17 0 33 5 36 10 4 6 -8 10 -29 10 -20
0 -36 -4 -36 -10z"/>
<path d="M1808 572 c-58 -4 -65 -23 -8 -20 36 1 71 13 60 20 -3 2 -26 2 -52 0z"/>
<path d="M865 450 c3 -5 14 -10 24 -10 10 0 29 -16 42 -35 24 -35 39 -44 39
-24 0 20 -67 79 -90 79 -11 0 -18 -4 -15 -10z"/>
<path d="M810 402 c0 -6 10 -14 22 -18 13 -4 35 -20 51 -37 15 -16 30 -27 33
-24 8 8 -37 64 -56 70 -8 3 -23 8 -32 12 -11 4 -18 3 -18 -3z"/>
<path d="M1769 374 c-12 -15 -10 -16 21 -9 66 14 79 24 34 24 -27 1 -46 -5
-55 -15z"/>
<path d="M728 310 c37 -23 72 -75 72 -107 0 -13 5 -23 10 -23 13 0 13 36 -1
63 -20 38 -72 87 -93 87 -17 0 -15 -4 12 -20z"/>
<path d="M1793 226 c-13 -6 -23 -14 -23 -18 0 -11 2 -10 38 8 18 8 40 13 49
10 10 -3 25 -1 33 4 22 14 -69 11 -97 -4z"/>
</g>
</svg>
